<svg xmlns="http://www.w3.org/2000/svg" width="30.595" height="26.042" viewBox="0 0 30.595 26.042"><g transform="translate(0.75 0.75)"><path d="M16.244,29.748,3.9,18.564c-6.71-6.71,3.154-19.594,12.347-9.171C25.437-1.029,35.256,11.9,28.59,18.564Z" transform="translate(-1.687 -5.468)" fill="rgba(0,0,0,0)"/><path d="M16.244,30.76,3.367,19.095a8.149,8.149,0,0,1-2.327-4.488,8.6,8.6,0,0,1,.576-4.646A8.14,8.14,0,0,1,9,4.718c1.763,0,4.407.638,7.243,3.57,2.831-2.926,5.467-3.563,7.224-3.563a8.145,8.145,0,0,1,7.384,5.252,8.627,8.627,0,0,1,.581,4.642,8.094,8.094,0,0,1-2.312,4.475l-.027.026ZM4.414,18.021,16.244,28.736,28.073,18.021a6.664,6.664,0,0,0,1.393-7.47,6.653,6.653,0,0,0-6-4.326c-2.243,0-4.547,1.267-6.662,3.665l-.562.638-.562-.638C13.563,7.488,11.253,6.218,9,6.218a6.648,6.648,0,0,0-6,4.317A6.681,6.681,0,0,0,4.414,18.021Z" transform="translate(-1.687 -5.468)" fill="#fff"/></g></svg>