<svg xmlns="http://www.w3.org/2000/svg" width="16" height="16" viewBox="0 0 16 16"><g transform="translate(-36.334)"><path d="M8,0l2.4,5.371,5.6.74-4.117,4.06L12.944,16,8,13.138,3.056,16l1.061-5.829L0,6.111l5.6-.74Z" transform="translate(36.334)" fill="#fff"/><path d="M8,3.677,6.628,6.748,3.237,7.2l2.5,2.463-.622,3.416L8,11.4l2.887,1.671L10.266,9.66l2.5-2.463L9.372,6.748,8,3.677M8,0l2.4,5.371,5.6.74-4.117,4.06L12.944,16,8,13.138,3.056,16l1.061-5.829L0,6.111l5.6-.74Z" transform="translate(36.334)" fill="#fff"/></g></svg>